<svg id="Layer_1" enable-background="new 0 0 512 512" height="512" viewBox="0 0 512 512" width="512" xmlns="http://www.w3.org/2000/svg"><path d="m416.667 176.733h-50.28c-6.619-48.962-45.165-87.928-93.926-95.182 3.402-15.94 20.739-51.551 63.872-51.551 8.284 0 14.992-6.716 14.992-15s-6.724-15-15.008-15c-35.362 0-64.197 18.847-80.317 43.936-16.163-25.157-45.031-43.936-80.333-43.936-8.284 0-14.992 6.716-14.992 15s6.724 15 15.008 15c43.103 0 60.452 35.599 63.857 51.552-48.762 7.253-87.307 46.219-93.926 95.182h-50.28c-52.567-.001-95.334 42.766-95.334 95.333s42.767 95.333 95.35 95.333c17.202 0 34.024-2.466 50.072-7.213 3.552 34.289 18.619 66.07 43.329 90.78l56.643 56.64c2.928 2.929 6.767 4.393 10.606 4.393s7.678-1.464 10.606-4.393l56.643-56.64c24.71-24.709 39.777-56.489 43.329-90.782 16.052 4.748 32.879 7.215 50.089 7.215 52.566 0 95.333-42.766 95.333-95.333s-42.767-95.334-95.333-95.334zm-160.667-66.4c39.762 0 72.956 28.656 80.015 66.4h-160.03c7.059-37.744 40.253-66.4 80.015-66.4zm-160.667 227.067c-36.024 0-65.333-29.308-65.333-65.333s29.309-65.333 65.333-65.333h144.911c-7.404 72.904-68.947 130.666-144.911 130.666zm160.667-74.394c5.891 13.268 18.045 36.298 42.076 58.327h-84.152c24.057-22.055 36.201-45.093 42.076-58.327zm46.036 166.747-46.036 46.034-46.036-46.034c-4.445-4.445-8.495-9.178-12.144-14.153h116.36c-3.649 4.975-7.699 9.708-12.144 14.153zm28.171-44.153h-148.414c-3.954-10.912-6.321-22.429-6.989-34.267h162.393c-.669 11.838-3.036 23.355-6.99 34.267zm86.443-48.2c-75.943 0-137.491-57.765-144.895-130.667h144.911c36.024 0 65.333 29.309 65.333 65.333s-29.308 65.334-65.349 65.334z"/></svg>