<svg id="_x33_0" enable-background="new 0 0 64 64" height="512" viewBox="0 0 64 64" width="512" xmlns="http://www.w3.org/2000/svg"><path d="m57.746 37.268c-1.378-1.383-2.948-2.498-4.641-3.352.583-1.59.895-3.25.895-4.956v-1.357c0-1.52-.214-3.006-.585-4.443 2.245-1.835 3.585-4.61 3.585-7.52 0-1.925-.564-3.79-1.633-5.392l-1.09-1.635-2.697 1.798c-1.046-2.749-3.43-4.801-6.384-5.392l-6.69-1.338.546 1.635c.594 1.782.667 3.687.212 5.507l-.102.405c-.107.429-.162.872-.162 1.317 0 2.058.842 3.994 2.3 5.387l-2.589 1.726.395.79c1.404 2.807 4.226 4.552 7.366 4.552h1.523c0 .047.006.093.006.139 0 1.717-.302 3.417-.874 5.026-.899-1.312-2.405-2.165-4.127-2.165-1.086 0-2.138.363-3 1.018-.862-.655-1.914-1.018-3-1.018-2.019 0-3.809 1.215-4.584 3.034-2.483.29-4.416 2.406-4.416 4.966 0 .624.128 1.229.349 1.801l-1.685.786c-.334.156-.692.256-1.056.324.25-.601.392-1.248.392-1.911 0-1.279-.481-2.477-1.343-3.395.226-.504.343-1.047.343-1.605 0-.399-.061-.79-.182-1.169.751-.742 1.182-1.752 1.182-2.831 0-.812-.253-1.597-.702-2.256.931-.821 1.56-1.976 1.681-3.282 1.232-.701 2.021-2.016 2.021-3.462 0-1.176-.53-2.283-1.406-3.033.267-.619.406-1.285.406-1.967 0-1.572-.744-2.96-1.882-3.877.544-.544.882-1.295.882-2.123 0-1.654-1.346-3-3-3h-1v-1c0-1.654-1.346-3-3-3s-3 1.346-3 3v1.422c0 .255-.048.505-.144.743l-1.135 2.836c-.003 0-.007-.001-.011-.001-2.032 0-3.919 1.009-5.045 2.7l-.324.487-4.103 1.641c-.572-.528-1.337-.828-2.117-.828-1.721 0-3.121 1.4-3.121 3.121v1.012c0 1.316.896 2.416 2.106 2.752.405 1.779 1.993 3.115 3.894 3.115h1.034l.748 1.248c.797 1.325 1.218 2.844 1.218 4.439 0 .783-.104 1.56-.308 2.308l-2.315 8.49c-.25.916-.377 1.864-.377 2.864 0 8.63 7.021 15.651 15.651 15.651 5.254 0 10.147-2.643 13.089-7.068.399-.6.834-1.23 1.294-1.872-.016.313-.034.626-.034.94-.001 7.168 5.83 13.001 12.997 13.002l.614.001h.002c3.308 0 6.418-1.288 8.758-3.627 2.34-2.34 3.629-5.451 3.629-8.76v-.581c0-4.833-1.866-9.367-5.254-12.767zm-8.362-18.318c1.68 2.54 2.616 5.528 2.616 8.653v1.357c0 1.431-.254 2.825-.73 4.162-.93-.344-1.886-.62-2.868-.805 1.044-2.243 1.598-4.696 1.598-7.178 0-2.086-.223-4.152-.616-6.189zm-30.67-12.042c.189-.476.286-.975.286-1.486v-1.422c0-.551.448-1 1-1s1 .449 1 1v3h3c.552 0 1 .449 1 1s-.448 1-1 1h-1.438c-1.162 0-2.188.668-2.685 1.678-.612-.581-1.333-1.04-2.141-1.325zm-4.714 6.092h2v2h-2zm0 15.141c0 .517-.043 1.036-.128 1.542l-.361 2.164-1.861-.465c.227-.878.35-1.784.35-2.741 0-.415-.035-.828-.084-1.238l2.06.412c.004.109.024.216.024.326zm-1.541-5.141c.552.841.948 1.757 1.205 2.713l-2.244-.449c-.24-.709-.534-1.4-.923-2.046l-.131-.218zm-1.326 10.314 2.049.512-.67 4.022-2.448-.612zm-2.133 8.985c0-.772.104-1.543.307-2.289l.231-.846 2.645.661-.05.3c-.089.529-.133 1.065-.133 1.596 0 .538.056 1.062.144 1.575l-3.058.509c-.054-.495-.086-.996-.086-1.506zm2.458 7.829c-.908-1.304-1.586-2.776-1.998-4.358l3.235-.539c.342.834.803 1.607 1.361 2.299zm5.852 4.781c-1.747-.746-3.299-1.856-4.583-3.222l2.742-2.742c.952.767 2.059 1.347 3.265 1.692zm5.69-36.909c0-1.22-.456-2.324-1.185-3.193l-.124-.74c-.073-.44-.205-.853-.364-1.252l.263-1.057c.113-.446.512-.758.972-.758h.438c1.654 0 3 1.346 3 3 0 .614-.189 1.208-.547 1.718l-.683.973 1.075.506c.713.335 1.155 1.026 1.155 1.803 0 .842-.541 1.597-1.347 1.877l-.694.242.024.735c.002.065.009.128.017.146 0 1.654-1.346 3-3 3-1.355 0-2.489-.908-2.86-2.143 2.207-.519 3.86-2.494 3.86-4.857zm-.27 13.024c.179.315.27.643.27.976 0 .428-.143.843-.414 1.199l-.609.803.808.603c.772.577 1.215 1.45 1.215 2.395 0 .679-.241 1.329-.658 1.855-1.914-.479-3.342-2.2-3.342-4.261 0-.322.035-.644.105-.956l1.484-6.679c.138.011.27.041.411.041.542 0 1.057-.105 1.547-.265.29.352.453.793.453 1.265 0 .684-.35 1.314-.936 1.685l-.806.51zm-.079 24.976c-1.192 0-2.342-.169-3.445-.458l1.523-4.57c.184.011.365.028.55.028h2.263c.244 0 .485-.015.726-.034l1.55 4.649c-1.027.247-2.087.385-3.167.385zm5.072-.991-1.472-4.417c.966-.294 1.877-.747 2.702-1.34l3.365 2.685c-1.324 1.332-2.88 2.381-4.595 3.072zm6.351-5.185c-.139.209-.302.396-.451.596l-3.142-2.507c.287-.28.584-.562.854-.833l1.445-1.446 2.973 1.783c-.607.828-1.169 1.64-1.679 2.407zm2.898-4.007-2.734-1.64.235-.235c.691-.691 1.447-1.289 2.249-1.806l1.81 1.81c-.541.614-1.062 1.241-1.56 1.871zm2.917-3.342-1.328-1.328c1.25-.552 2.581-.915 3.962-1.064-.908.721-1.79 1.528-2.634 2.392zm-2.762-8.771-6.967 3.252c-.103-.306-.16-.627-.16-.956 0-1.654 1.346-3 2.931-3.003l.977.042.198-.778c.339-1.331 1.53-2.261 2.894-2.261.864 0 1.662.369 2.247 1.038l.753.86.753-.861c.585-.668 1.383-1.037 2.247-1.037 1.327 0 2.431.848 2.83 2.038-.257-.011-.511-.038-.769-.038-.001 0-.001 0-.002 0h-.252c-2.635 0-5.291.589-7.68 1.704zm8.995 18.172c-.725-.725-1.123-1.688-1.123-2.713v-.166c0-.734.066-1.456.188-2.161.702.635 1.186 1.489 1.346 2.449l.041.241c.22 1.317.865 2.511 1.799 3.429-.848-.102-1.637-.465-2.251-1.079zm6.882-2.799c0 1.062-.401 2.053-1.131 2.79-.227.229-.484.413-.752.575l-.281-.14c-1.213-.606-2.07-1.767-2.293-3.105l-.041-.241c-.29-1.745-1.303-3.26-2.762-4.208.515-1.418 1.285-2.73 2.295-3.872 2.935 1.425 4.964 4.436 4.965 7.909z"/></svg>