<?xml version="1.0" encoding="iso-8859-1"?>
<!-- Generator: Adobe Illustrator 19.0.0, SVG Export Plug-In . SVG Version: 6.00 Build 0)  -->
<svg version="1.1" id="Capa_1" xmlns="http://www.w3.org/2000/svg" xmlns:xlink="http://www.w3.org/1999/xlink" x="0px" y="0px"
	 viewBox="0 0 511.999 511.999" style="enable-background:new 0 0 511.999 511.999;" xml:space="preserve">
<g>
	<g>
		<path d="M419.146,475.731c-13.78-1.994-26.803-10.751-33.985-22.852c-4.448-7.493-8.612-19.487-3.192-34.077
			c8.269-22.263,20.129-38.786,31.6-54.767c19.605-27.313,39.877-55.554,39.979-107.986c0.091-47.321-28.479-95.199-71.096-119.136
			c-27.613-15.512-56.993-18.266-82.705-8.193c-1.901-3.141-3.985-6.621-6.263-10.46c-5.63-9.489-16.326-14.625-27.254-13.09
			c-10.936,1.54-19.81,9.44-22.606,20.127c-0.409,1.562-0.793,3.006-1.159,4.373c-0.053-0.068-0.103-0.131-0.157-0.2
			c-5.312-6.776-13.138-16.609-23.262-29.227c-17.14-21.363-41.181-51.1-71.453-88.386c-10.562-13.01-28.306-15.643-42.194-6.272
			c-13.888,9.375-18.076,26.818-9.961,41.477l63.9,115.427c-2.267,2.401-4.477,4.811-6.658,7.198
			c-19.467,21.316-33.533,36.719-75.205,26.646c-5.495-1.331-11.278,0.462-15.062,4.663c-3.785,4.202-4.963,10.139-3.068,15.467
			c4.453,12.526,26.663,42.291,65.359,54.308c-7.512,10.901-15.243,21.584-20.473,27.459l-1.041,1.167
			c-16.562,18.567-29.645,33.231-29.12,51.191c0.536,18.214,9.085,45.238,31.416,61.448c12.982,9.424,28.569,14.143,46.591,14.143
			c11.834-0.001,24.72-2.036,38.602-6.112c8.896-2.611,16.934-5.666,24.026-8.36c9.057-3.442,16.881-6.413,23.295-7.297
			c21.334-2.94,36.672-7.586,47.875-12.781c-0.784,7.506-1.413,15.353-1.763,23.583c-1.516,35.598,8.524,62.072,29.84,78.687
			c18.155,14.151,41.26,18.098,61.394,18.098c24.438,0,44.498-5.817,45.992-6.262c6.931-2.062,11.495-8.668,10.97-15.882
			C431.775,482.643,426.303,476.768,419.146,475.731z M122.383,32.143c-0.147-0.265-0.219-0.451-0.254-0.561
			c0.208-0.308,0.756-0.677,1.119-0.755c0.088,0.073,0.235,0.211,0.426,0.447c66.232,81.58,90.135,111.618,98.28,122.182
			c-4.591,10.474-15.497,14.738-23.296,16.468L122.383,32.143z M110.397,229.731c31.902-3.266,49.661-22.45,64.651-38.859l1.71,3.09
			c2.716,4.906,7.879,7.942,13.474,7.942c0.075,0,0.152-0.001,0.228-0.002c10.024-0.147,25.261-3.154,38.42-11.521
			c0.287,10.818,2.589,20.851,6.907,29.956c-9.688,10.304-28.099,24.797-76.476,24.798
			C138.343,245.136,122.056,237.966,110.397,229.731z M299.953,310.803c-2.698,11.195-5.474,22.742-7.645,35.398
			c-0.012,0.068-0.03,0.135-0.042,0.202c-0.58,0.819-1.115,1.63-1.626,2.406c-4.376,6.632-12.522,18.978-56.85,25.087
			c-9.881,1.36-19.668,5.08-30.032,9.017c-6.889,2.617-14.012,5.324-21.762,7.598c-25.388,7.453-45.043,6.308-58.42-3.403
			c-14.212-10.317-18.455-28.38-18.721-37.422c-0.166-5.702,11.247-18.496,21.316-29.783l1.052-1.18
			c7.943-8.92,20.882-27.331,31.257-42.793c0.277,0.002,0.55,0.009,0.829,0.009c29.121-0.001,53.461-4.877,72.342-14.493
			c16.592-8.451,25.499-18.64,30.82-24.729c0.979-1.119,2.196-2.513,2.661-2.932c5.832-5.266,6.764-14.08,2.164-20.449
			c-5.049-6.99-7.555-15.04-7.663-24.612c-0.102-8.891,1.99-19.121,6.05-29.585c0-0.001,0.001-0.002,0.001-0.002
			c1.47-3.791,3.309-9.715,5.583-17.99c3.921,6.529,7.189,11.845,9.748,15.858c7.911,12.396,16.034,31.095,15.173,42.87
			c-0.335,4.65-1.432,9.32-3.26,13.879c-2.037,5.079-1.226,10.856,2.129,15.178C313.015,252.064,309.085,272.914,299.953,310.803z
			 M358.671,468.603c2.627,4.424,5.681,8.552,9.095,12.34c-12.742-0.849-25.499-3.996-34.942-11.383
			c-12.972-10.149-19.009-27.993-17.943-53.036c0.915-21.473,3.94-40.784,6.609-57.821l0.518-3.31
			c2.061-13.181,5.025-25.478,7.892-37.372c8.359-34.681,16.286-67.561-5.578-101.068c1.364-4.897,2.231-9.866,2.59-14.849
			c1.179-16.145-5.38-33.805-11.399-46.249c-0.005-0.011-0.009-0.024-0.015-0.035c21.074-6.259,40.862,1.771,51.865,7.951
			c32.675,18.354,55.447,56.277,55.378,92.22c-0.082,42.553-15.892,64.58-34.199,90.083c-12.067,16.811-25.743,35.864-35.452,62.005
			C345.558,428.358,347.541,449.853,358.671,468.603z"/>
	</g>
</g>
<g>
	<g>
		<path d="M269.638,272.509c-6.016-6.015-15.769-6.014-21.783,0.001c-4.025,4.026-9.587,5.979-15.257,5.357
			c-8.461-0.927-16.062,5.177-16.988,13.633c-0.926,8.455,5.177,16.061,13.632,16.988c1.832,0.2,3.659,0.3,5.475,0.3
			c13.065,0,25.558-5.132,34.922-14.496C275.653,288.277,275.652,278.525,269.638,272.509z"/>
	</g>
</g>
<g>
	<g>
		<path d="M130.739,336.12c-8.056,0-15.775,7.084-15.402,15.402c0.374,8.345,6.768,15.402,15.402,15.402
			c8.056,0,15.775-7.084,15.402-15.402C145.767,343.177,139.374,336.12,130.739,336.12z"/>
	</g>
</g>
<g>
</g>
<g>
</g>
<g>
</g>
<g>
</g>
<g>
</g>
<g>
</g>
<g>
</g>
<g>
</g>
<g>
</g>
<g>
</g>
<g>
</g>
<g>
</g>
<g>
</g>
<g>
</g>
<g>
</g>
</svg>
