<svg id="Capa_1" enable-background="new 0 0 509.495 509.495" height="512" viewBox="0 0 509.495 509.495" width="512" xmlns="http://www.w3.org/2000/svg"><g id="XMLID_934_"><path id="XMLID_935_" d="m56.646 172.526c0-13.933 1.454-27.531 4.203-40.659-6.349-4.722-14.209-7.52-22.711-7.52-21.029 0-38.138 17.109-38.138 38.139 0 46.717 21.202 90.605 56.646 119.739z"/><path id="XMLID_938_" d="m509.495 162.485c0-21.029-17.109-38.138-38.139-38.138-8.502 0-16.362 2.799-22.711 7.52 2.749 13.128 4.203 26.726 4.203 40.659v109.698c35.445-29.133 56.647-73.022 56.647-119.739z"/><circle id="XMLID_939_" cx="311.293" cy="163.811" r="19.613"/><path id="XMLID_942_" d="m422.849 486.169v-219.069-94.573c0-92.691-75.41-168.102-168.102-168.102s-168.101 75.41-168.101 168.101v94.574 219.069h15c7.806 0 11.111 2.448 16.586 6.503 7.063 5.233 16.736 12.398 34.444 12.398s27.381-7.166 34.444-12.397c5.475-4.056 8.78-6.504 16.587-6.504 7.808 0 11.113 2.448 16.588 6.503 7.063 5.232 16.736 12.398 34.445 12.398 17.708 0 27.381-7.166 34.444-12.397 5.476-4.056 8.781-6.504 16.588-6.504 7.81 0 11.115 2.448 16.591 6.504 7.063 5.232 16.737 12.397 34.447 12.397s27.383-7.165 34.446-12.397c5.477-4.056 8.783-6.504 16.592-6.504zm-215.774-336.373c8.409 0 14.636 6.873 15 15 .363 8.101-7.154 15-15 15-8.409 0-14.636-6.873-15-15-.362-8.101 7.154-15 15-15zm120.117 117.308h-15.592v29.981c0 28.902-23.514 52.416-52.416 52.416s-52.415-23.514-52.415-52.416v-29.981h-15.454v-30h135.876v30zm-15.899-53.68c-27.356 0-49.613-22.256-49.613-49.613s22.256-49.613 49.613-49.613 49.613 22.256 49.613 49.613-22.257 49.613-49.613 49.613z"/><path id="XMLID_945_" d="m236.769 297.086c0 12.36 10.055 22.416 22.415 22.416s22.416-10.056 22.416-22.416v-29.981h-44.831z"/></g></svg>