<svg id="Capa_1" enable-background="new 0 0 512 512" height="512" viewBox="0 0 512 512" width="512" xmlns="http://www.w3.org/2000/svg"><g><path d="m422.556 371.906v-2.044c0-61.576 26.46-119.979 71.821-160.648-42.257 7.697-82.133 32.345-112.695 70.27-5.433 23.288-8.224 47.236-8.224 71.272v21.149h-30v-21.149c0-55.874 13.755-111.331 39.779-160.375 15.582-29.368 35.53-56.447 58.901-80.172-29.369 11.93-56.939 28.332-81.532 48.647-38.414 31.734-68.907 72.435-88.465 117.987 11.584 30.012 19.044 61.953 21.76 95.062h-30.124c-10.554-117.371-86.502-218.315-194.032-261.812 23.422 23.753 43.408 50.871 59.017 80.288 26.024 49.044 39.779 104.5 39.779 160.375v21.149h-30v-21.149c0-24.036-2.791-47.984-8.224-71.272-30.562-37.925-70.438-62.573-112.695-70.27 45.361 40.669 71.821 99.072 71.821 160.648v2.044h-89.443v30h512v-30z"/></g></svg>