<svg id="Layer_5" enable-background="new 0 0 64 64" height="512" viewBox="0 0 64 64" width="512" xmlns="http://www.w3.org/2000/svg"><g><path d="m39 39c-4.415 0-8.36 2.328-11.172 4.617 3.679 1.805 7.566 3.383 11.172 3.383 2.296 0 9.662-.285 9.971-3.78-.013-.297-.033-.593-.062-.887-.862-3.079-7.712-3.333-9.909-3.333z"/><path d="m23.601 43.708c-3.015-1.564-5.878-3.046-8.165-3.535-.418 1.832-.546 3.76-.333 5.726.846 7.82 7.133 14.126 14.949 14.993 4.919.549 9.634-.955 13.283-4.222 2.85-2.551 4.717-5.981 5.38-9.692-2.004 1.322-5.288 2.022-9.715 2.022-5.198 0-10.618-2.812-15.399-5.292zm1.399 11.292c-1.105 0-2-.895-2-2s.895-2 2-2 2 .895 2 2-.895 2-2 2zm11 2c-1.105 0-2-.895-2-2s.895-2 2-2 2 .895 2 2-.895 2-2 2z"/><path d="m25.884 42.637c3.1-2.673 7.749-5.637 13.116-5.637 4.033 0 7.111.584 9.144 1.685-1.517-4.619-4.97-8.448-9.644-10.383-1.919-.794-3.214-2.508-3.451-4.471-.393-.132-.748-.34-1.049-.611-.532.48-1.229.78-2 .78s-1.468-.301-2-.78c-.301.272-.657.479-1.049.611-.237 1.962-1.533 3.677-3.454 4.473-4.57 1.893-7.922 5.543-9.495 9.948 2.527.577 5.449 2.088 8.519 3.681.449.232.904.468 1.363.704zm1.116-10.637c1.105 0 2 .895 2 2s-.895 2-2 2-2-.895-2-2 .895-2 2-2z"/><path d="m26.066 16.8.934.7v3.5c0 .551.448 1 1 1s1-.449 1-1v-3h2v3c0 .551.448 1 1 1s1-.449 1-1v-3h2v3c0 .551.448 1 1 1s1-.449 1-1v-3.5l.934-.7c1.92-1.44 3.066-3.733 3.066-6.133 0-4.228-3.439-7.667-7.667-7.667h-2.666c-4.228 0-7.667 3.439-7.667 7.667 0 2.4 1.146 4.693 3.066 6.133zm9.934-7.8c1.105 0 2 .895 2 2s-.895 2-2 2-2-.895-2-2 .895-2 2-2zm-8 0c1.105 0 2 .895 2 2s-.895 2-2 2-2-.895-2-2 .895-2 2-2z"/><circle cx="8" cy="27" r="3"/><circle cx="14" cy="14" r="2"/><circle cx="52" cy="27" r="2"/><circle cx="59" cy="11" r="3"/><circle cx="4" cy="47" r="2"/><circle cx="56" cy="55" r="2"/><circle cx="59" cy="42" r="3"/><circle cx="11" cy="58" r="2"/></g></svg>